<svg xmlns="http://www.w3.org/2000/svg" width="30" height="15.8" viewBox="3 11.6 30 15.8"><path d="M27 27.4a4 4 0 0 1-2.1-.6c-.7-.4-1.3-1-1.8-1.6-.5-.4-1.2-1.2-1.5-1.2-.2.1-.4 1-.4 1.6 0 .1 0 .8-.5 1.2-.4.4-1 .5-1.2.5h-2c-1 0-4.3-.2-7.4-3a40.1 40.1 0 0 1-7-10c-.1-.5-.2-1.1.2-1.5.4-.5 1-.5 1.4-.5h4.2s.5 0 1 .3l.5.7s.7 1.5 1.5 2.7c1.3 2 2 2.5 2.1 2.6.2-.4.3-1.7.2-2.9 0-.5 0-1-.2-1.3l-.8-.3-.7-.6c-.1-.7.6-1.3 1.1-1.5.7-.3 1.8-.4 3.2-.4h.7c1.2 0 1.6.1 2.1.2 1.7.4 1.7 1.8 1.6 3.3v3.4c.2-.1.9-.6 2-2.4.9-1.2 1.5-2.6 1.6-2.8.2-.5.6-1 1.6-1h4.7c1 0 1.6.3 1.8.8.3.7.2 1.7-2.3 4.6a98.6 98.6 0 0 1-2.3 2.7c0 .2.7.7 1.3 1.2 1.5 1.2 2.5 2.3 3 3 .5.8.4 1.4.3 1.7-.4 1-1.7 1-1.9 1h-4.1zm-5.4-4.9c1 0 1.7.8 2.5 1.7.5.5 1 1 1.5 1.3.8.4 1.4.4 1.4.4h4l.5-.2-.1-.2a13 13 0 0 0-2.7-2.7c-1.2-1-1.8-1.5-1.9-2.2 0-.8.5-1.5 1.6-2.7l1-1.1c1.6-1.9 2-2.7 2-3h-5.2c-.2.5-.8 1.9-1.7 3-1.9 3-2.7 3.3-3.4 3.3-.2 0-.4 0-.5-.2-1-.5-1-1.8-1-2.7V15c.2-1.7.1-1.7-.3-1.8-.4 0-.7-.2-1.8-.2h-.7l-2 .1.3.3c.6.7.6 2 .6 2.2.1 1.6 0 3.8-1 4.3l-.6.1c-1 0-1.9-.9-3.4-3.2a22.9 22.9 0 0 1-1.7-3l-.3-.1h-4C5.1 15 8 20.4 11 23.2a10 10 0 0 0 6.5 2.6h2.1v-.2c0-.2 0-2.6 1.5-3h.4z"/></svg>